# xmcd
#
# Track frame offsets:
#  150
#  16755
#  32997
#  45075
#  65060
#  76947
#  96272
#  121565
#  136090
#
# Disc length: 2047 seconds
#
# Revision: 0
# Processed by: cddbd v1.4PL0 Copyright (c) Steve Scherf et al.
# Submitted via: AltoMP3_Maker 3.0
#
DISCID=6207fd09
DTITLE=Billy Walker - Greatest All Time Cowboy Hits
DYEAR=1900
DGENRE=
TTITLE0=Streets of Laredo
TTITLE1=Shenandoah
TTITLE2=The Roving Gambler
TTITLE3=Little Joe The Wrangler
TTITLE4=Waiting For A Train
TTITLE5=Strawberry Roan
TTITLE6=Red River Valley
TTITLE7=O Bury Me Not On The Lone Prairie
TTITLE8=Patanio - Pride of the Plains
EXTD=
EXTT0=
EXTT1=
EXTT2=
EXTT3=
EXTT4=
EXTT5=
EXTT6=
EXTT7=
EXTT8=
PLAYORDER=
